#!OML:ASF F:\VICON\USERDATA\INSTALL\rory3\rory3.ASF
:FULLY-SPECIFIED
:DEGREES
514
root 0.201099 16.3066 14.9611 -150.418 -54.1414 -186.947
lowerback -11.8407 2.44039 0.502051
upperback -10.3592 2.30169 -0.975593
thorax -4.18778 0.706207 -1.08802
lowerneck -5.74078 -17.5657 -14.107
upperneck 23.0476 -26.5404 8.66975
head 11.4786 -12.972 1.49424
rclavicle -7.47927e-014 1.19271e-014
rhumerus 377.018 29.7769 -405.493
rradius 56.5885
rwrist -48.6439
rhand 21.8204 6.09993
rfingers 7.12502
rthumb 46.227 -16.8995
lclavicle -7.47927e-014 1.19271e-014
lhumerus -13.1374 21.9207 7.64524
lradius 16.6427
lwrist -51.0045
lhand 10.1152 24.8637
lfingers 7.12502
lthumb 35.2356 51.3644
rfemur -77.5284 -35.7714 49.5027
rtibia 47.1302
rfoot -41.0439 -41.8628
rtoes 49.625
lfemur -9.33518 -12.6962 -16.2293
ltibia 16.1267
lfoot -46.7144 28.064
ltoes -11.0974
515
root 0.190192 16.3139 14.9234 -149.872 -53.9462 -187.396
lowerback -11.5982 2.34872 0.508687
upperback -10.4747 2.16652 -1.0905
thorax -4.44249 0.626483 -1.23066
lowerneck -5.67953 -17.5565 -13.6559
upperneck 22.8525 -26.5222 8.55236
head 11.3044 -12.9544 1.43112
rclavicle 9.23852e-014 -7.95139e-015
rhumerus 377.169 28.6742 -404.775
rradius 55.5242
rwrist -48.4435
rhand 20.4082 6.28631
rfingers 7.12502
rthumb 44.9151 -17.2466
lclavicle 9.23852e-014 -7.95139e-015
lhumerus -12.6247 18.9132 8.3795
lradius 17.48
lwrist -49.7011
lhand 12.9589 26.8981
lfingers 7.12502
lthumb 37.9271 52.7171
rfemur -78.0414 -36.0231 49.9103
rtibia 47.2172
rfoot -40.294 -41.7408
rtoes 49.3554
lfemur -9.0312 -13.3941 -16.5116
ltibia 15.5347
lfoot -47.4225 28.4728
ltoes -11.2886
516
root 0.172578 16.3122 14.8809 -149.846 -53.9268 -187.197
lowerback -11.7913 2.21336 0.770016
upperback -10.2606 1.99146 -0.888442
thorax -4.10779 0.542635 -1.17195
lowerneck -6.14594 -17.633 -13.5643
upperneck 22.6655 -26.5358 8.62932
head 11.3194 -12.9127 1.40293
rclavicle -8.38871e-014 -1.74931e-014
rhumerus 377.835 27.2511 -403.569
rradius 54.3645
rwrist -47.5819
rhand 19.2905 6.82562
rfingers 7.12502
rthumb 43.8735 -17.1043
lclavicle -8.38871e-014 -1.74931e-014
lhumerus -12.3186 19.8604 8.71406
lradius 17.3294
lwrist -50.6569
lhand 13.45 26.768
lfingers 7.12502
lthumb 38.3907 52.4599
rfemur -78.3999 -36.2044 50.4597
rtibia 47.3967
rfoot -39.8451 -41.5223
rtoes 49.2561
lfemur -8.75599 -14.2267 -16.3127
ltibia 15.1123
lfoot -48.8181 28.0234
ltoes -9.79358
517
root 0.164363 16.2997 14.8403 -149.787 -53.6216 -186.933
lowerback -12.2349 1.95608 0.71476
upperback -9.86291 1.69234 -0.393816
thorax -3.4642 0.432519 -0.637412
lowerneck -6.91339 -17.6296 -13.9048
upperneck 22.4319 -26.3347 8.85283
head 11.4333 -12.7634 1.47864
rclavicle 5.95484e-014 -5.56597e-015
rhumerus 379.379 25.7532 -401.859
rradius 52.7671
rwrist -46.3453
rhand 18.2392 7.55717
rfingers 7.12502
rthumb 42.8913 -16.7271
lclavicle 5.95484e-014 -5.56597e-015
lhumerus -12.6285 20.8855 9.04157
lradius 17.2123
lwrist -51.38
lhand 13.2467 26.6982
lfingers 7.12502
lthumb 38.1988 52.4431
rfemur -78.5807 -35.8116 50.5677
rtibia 47.6588
rfoot -39.859 -41.4595
rtoes 49.0547
lfemur -8.69026 -15.1289 -16.1573
ltibia 14.9295
lfoot -50.7518 27.0841
ltoes -6.02662
518
root 0.166172 16.2806 14.801 -149.054 -52.7968 -187.521
lowerback -12.2225 1.85486 0.103729
upperback -9.77876 1.61686 -0.344483
thorax -3.40251 0.431544 -0.250506
lowerneck -7.04458 -17.6283 -13.986
upperneck 22.1477 -26.3011 9.09347
head 11.3961 -12.7224 1.56761
rclavicle 3.87009e-014 -6.36111e-015
rhumerus 380.265 24.2367 -400.474
rradius 50.8986
rwrist -45.5531
rhand 17.0382 8.33745
rfingers 7.12502
rthumb 41.7666 -16.3303
lclavicle 3.87009e-014 -6.36111e-015
lhumerus -12.4103 21.0928 9.38322
lradius 17.1716
lwrist -51.5436
lhand 12.9705 26.6603
lfingers 7.12502
lthumb 37.938 52.4764
rfemur -78.6293 -34.9484 49.6685
rtibia 48.0044
rfoot -40.2994 -41.5628
rtoes 48.9851
lfemur -8.77338 -15.8893 -16.7663
ltibia 14.9986
lfoot -51.8666 27.3534
ltoes -3.95628
